<?xml version="1.0" standalone="no"?>
<!DOCTYPE svg PUBLIC "-//W3C//DTD SVG 20010904//EN"
 "http://www.w3.org/TR/2001/REC-SVG-20010904/DTD/svg10.dtd">
<svg version="1.0" xmlns="http://www.w3.org/2000/svg"
 width="100.000000pt" height="100.000000pt" viewBox="0 0 100.000000 100.000000"
 preserveAspectRatio="xMidYMid meet">
<metadata>
Created by potrace 1.11, written by Peter Selinger 2001-2013
</metadata>
<g transform="translate(0.000000,100.000000) scale(0.100000,-0.100000)"
fill="#000000" stroke="none">
<path d="M419 987 c-66 -30 -125 -104 -135 -166 -12 -75 -16 -91 -22 -92 -137
-9 -136 -8 -140 -238 -4 -252 -2 -258 120 -285 16 -4 27 -10 26 -14 -2 -6 7
-66 18 -121 6 -29 48 -60 90 -67 59 -8 89 0 124 38 31 32 33 38 31 98 0 19 2
41 4 49 9 23 30 -4 33 -41 3 -47 32 -81 81 -97 141 -45 202 76 196 388 -2 127
0 151 16 181 11 19 19 54 19 79 0 39 -5 49 -46 89 -25 25 -52 62 -60 81 -21
50 -48 76 -107 102 -62 26 -206 36 -248 16z"/>
</g>
</svg>
